<?xml version="1.0" encoding="utf-8"?>
<!-- Generator: Adobe Illustrator 16.0.0, SVG Export Plug-In . SVG Version: 6.00 Build 0)  -->
<!DOCTYPE svg PUBLIC "-//W3C//DTD SVG 1.1//EN" "http://www.w3.org/Graphics/SVG/1.1/DTD/svg11.dtd">
<svg version="1.1" id="Layer_1" xmlns="http://www.w3.org/2000/svg" xmlns:xlink="http://www.w3.org/1999/xlink" x="0px" y="0px"
	 width="770px" height="88px" viewBox="0 0 770 88" enable-background="new 0 0 770 88" xml:space="preserve">
<path fill="#FFFFFF" d="M65.075,11.263C54.7,14.189,43.579,23.503,36.877,35.566c-6.336,10.449-13.81,21.542-14.791,22.946
	c-1.194,1.657-1.981,3.184-2.216,4.321c-0.316,1.456,0.436,2.364,1.553,3.061c3.479,2.211,8.328,3.386,14.325,3.136
	c3.054-0.161,4.823-0.912,6.5-2.319c-0.039,0.149-0.554,1.271-0.599,1.748c-0.045,0.323-0.056,0.46-0.017,0.71
	c0.183,1.322,1.423,1.966,2.647,2.6c2.545,1.262,9.355,2.619,15.102,1.916c1.598-0.212,2.969-1.546,4.047-3.127
	c0.028,2.029,0.568,3.369,2.625,4.399c5.256,2.563,17.738,1.7,20.426-0.273c0.857-0.614,1.438-1.788,1.438-2.817
	c0.274,0.158,0.567,0.514,0.883,0.701l0.119,0.09c0.026,0,0.073,0.043,0.073,0.043c5.08,2.578,13.117,0.93,16.251-1.349
	c1.803-1.343,1.886-2.812,1.731-3.593c-0.154-0.845-0.851-1.76-1.602-2.23l-0.128-0.062c0.043,0-1.901-1.222-1.901-1.222
	c-0.92-0.629-3.058-1.956-3.39-3.289c-0.013-0.041,0.017-0.197,0.06-0.269c0.231-0.327,1.389-0.772,3.95,0.607
	c0.507,0.337,0.853,0.63,1.104,0.848c-0.491-0.426,1.106,1.013,2.355,0.798c0.836-0.16,1.318-0.439,1.696-0.641
	c2.349-1.357,5.829-5.088,5.829-9.941l-0.031-0.524v-0.19c1.984-2.158,2.613-4.635,2.889-6.685c0-0.036,0.071-0.67,0.071-0.67
	c0.085-0.732,0.203-2.334,0.994-4.102l0.099-0.258c0.372-0.694,0.522-1.364,0.522-1.989c0-0.963-0.416-1.783-1.226-2.533l0.025,0.06
	c-0.175-0.171-0.539-0.528-1.775-1.352v-0.008v0.008c-1.662-1.172-3.472-2.079-5.023-2.736l-0.094-0.014
	c0,0-6.711-2.792-6.894-2.872c-0.774-0.344-0.957-0.88-0.957-0.88c-0.319-0.985-0.739-1.595-1.344-2.279
	c-0.245-0.27-0.974-0.863-1.519-1.337c-2.988-2.45-9.133-6.074-9.877-6.524c-0.312-0.213-1.336-1.311-1.539-2.081l-0.033-0.168
	c-0.023-0.051-0.051-0.18-0.051-0.18c-0.873-2.348-3.449-3.089-5.537-3.08h-0.074c-2.018,0.143-3.893-0.009-6.334-0.588
	C73.66,10.163,69.119,10.103,65.075,11.263"/>
<path fill="#E12B26" d="M85.386,71.399c-0.141-0.318-1.146-2.095-1.434-2.61c-2.348-4.588-2.092-7.848-2.092-7.848
	c0.15-3.834,1.545-7.365,2.772-10.99c0.349-1.524-0.584-2.73-1.299-3.927c-0.845-1.229-1.101-2.742-1.024-4.305
	c0.026-0.901,0.457-1.737,0.274-2.62c-0.097-0.34-0.489-0.462-0.489-0.462c-1.625-0.577-4.611,0.144-7.961,3.344
	c-4.523,4.603-5.791,11.077-8.404,26.39c-0.572,3.42-0.271,3.676,1.391,4.494c4.762,2.33,16.139,1.332,17.958,0.004
	C85.499,72.566,85.696,71.962,85.386,71.399"/>
<path fill="#E12B26" d="M116.62,37.087c-0.157-0.211-1.391-1.015-1.391-1.015c-1.476-1.069-3.086-1.843-4.699-2.571
	c-7.742-3.134-7.541-3.061-7.942-3.271c-0.478-0.231-1.095-0.641-1.388-1.232c-0.491-1.042-0.904-2.048-1.276-2.541
	c-0.099-0.121-0.505-0.43-1.188-0.981c-3.008-2.499-9.211-6.024-9.211-6.024c-0.72-0.442-1.965-1.549-2.572-3.616
	c-0.504-1.278-2.201-1.646-3.393-1.607c-2.506,0.144-4.709-0.15-6.979-0.664c-3.406-1.201-7.657-1.124-11.123-0.155
	c-10.581,2.98-20.819,12.948-26.811,23.749c0,0-13.836,21.776-15.752,24.2c-1.486,1.867,0.176,2.594,0.938,3.04
	c2.512,1.434,6.197,2.239,11.861,2.191c6.012,0.161,7.054-2.808,9.444-8.187c0.66-1.543,2.472-5.972,2.472-5.972
	c1.102-2.632,2.568-6.085,4.521-10.473c4.056-9.137,9.628-14.215,14.295-16.812c0,0,6.364-3.637,12.306-1.618
	c1.133,0.366,1.787-0.912,2.225-1.516c0.544-0.738,1.468-1.355,2.24-1.536c1.437-0.321,3.726,0.798,3.726,0.798
	c3.618,1.981,5.876,3.286,9.336,5.859c0.058,0.035,0.231,0.209,0.406,0.515c0.231,0.355,1.575,3.177,1.575,3.177
	s0.271,0.525,0.787,0.75c0.508,0.209,8.627,3.602,8.627,3.602c1.322,0.588,4.539,2.003,6.199,3.254
	c0.12,0.106,0.318,0.285,0.178,0.627l-0.613,1.643c-0.528,1.385-0.092,4.552-1.631,6.886c-0.217,0.323-0.776,0.696-1.336,0.619
	c-0.967-0.121-2.198-0.304-3.369-0.296c-0.905,0.054-1.936,0.121-2.734,0.936c-0.447,0.434-0.627,0.779-0.333,1.194
	c0.29,0.327,0.66,0.167,0.66,0.167c0.485-0.299,1.199-0.488,2.001-0.488c1.077,0,2.527,0.428,2.975,1.225
	c0.328,0.686,0.401,1.288,0.297,2.071c-0.32,2.435-1.812,3.845-2.414,4.339c-0.135,0.104-0.327,0.139-0.557,0.055
	c-0.826-0.401-3.033-1.279-4.328-1.571c-0.191-0.04-0.313-0.027-0.358-0.037c-4.728,0.383-9.443,0.195-13.253-2.377
	c-0.786-0.519-2.004-2.372-2.719-0.808c-1.072,3.127-1.82,6.303-1.363,9.789c0.173,1.377,1.479,6.278,4.804,8.234
	c5.286,2.719,15.146-0.366,14.75-2.562c-0.021-0.115-0.079-0.285-0.328-0.429c-0.252-0.144-0.881-0.489-2.192-1.361v0.01
	c-1.223-0.849-3.381-2.349-4.2-4.488c-0.82-2.196,1.338-5.092,7.135-2.282c0,0,0.993,0.488,1.562,1.023
	c0.135,0.102,0.279,0.247,0.539,0.232c0.371-0.006,0.787-0.232,0.93-0.3c1.793-1.034,5.49-4.755,4.533-9.562
	c1.922-1.674,2.647-3.523,3.062-6.24c0.07-0.408,0.133-2.848,1.23-5.347C117.077,38.642,117.687,37.878,116.62,37.087"/>
<path fill="#E12B26" d="M91.684,33.34c1.073,0,1.743,0.023,2.305,0.154c0.619,0.191,1.366,0.943,1.937,1.688
	c0.203,0.274,0.564,0.79,1.086,0.511c0.252-0.166,0.521-0.828,0.58-1.314c0.039-0.548,0.258-1.58-0.349-2.088
	c0,0-0.077-0.062-0.132-0.078c-0.24-0.081-1.73-0.732-1.73-0.732c-0.248-0.123-0.406-0.186-0.547-0.175
	c-1.505,0.074-3.103,0.478-3.926,0.691c-0.916,0.248-0.357,0.931-0.357,0.931C90.806,33.227,90.811,33.408,91.684,33.34"/>
<path fill="#E12B26" d="M81.785,30.781c-0.253-0.447-2.11-3.644-2.341-4.017c-0.023-0.062-0.056-0.097-0.056-0.097
	c-1.159-1.461-4.831-1.081-5.876-1.016c-3.74,0.233-12.945,4.255-18.816,17.448c-5.639,12.75-7.25,17.431-7.25,17.431
	c-0.569,1.296-0.928,2.371-3.152,6.263c-1.189,1.703,0.627,2.562,0.854,2.669c2.033,1.013,8.39,2.396,13.828,1.714
	c1.271-0.165,3.524-1.271,5.074-9.519c0.055-0.322,0.116-0.624,0.161-0.941c0.778-4.196,1.493-7.548,2.306-10.349
	c1.369-4.656,3.187-7.918,5.633-10.244c2.467-2.334,6.261-4.46,10.155-4.081c0.449,0.013,0.981-0.26,0.902-0.985
	C82.959,33.437,82.514,32.18,81.785,30.781"/>
<rect x="297.384" y="12.529" fill="#E12B26" width="2.298" height="63.889"/>
<path fill="#99877E" d="M269.982,63.336c-0.353,0.607-0.61,1.212-1.224,1.58c-1.453,0.906-6.252,1.63-11.848,1.63
	c-13.861,0-23.33-9.106-23.33-22.36c0-11.898,9.953-21.625,23.1-21.625c7.285,0,12.39,2.544,14.258,3.701
	c0.511,0.239,0.511,0.617,0.511,1.037v3.888c0,0.241-0.197,0.491-0.375,0.666l-1.644,1.151c-0.899,0.677-2.926-6.503-12.703-6.503
	c-9.172,0-13.975,7.303-13.975,17.2c0,12.169,7.104,18.894,15.373,18.894c4.137,0,8.688-1.027,12.037-4.188
	c0.911-0.854,2.246-0.06,1.698,0.858L269.982,63.336z"/>
<path fill="#99877E" d="M200.45,49.484l6.389-16.466l6.258,16.466H200.45z M230.118,62.855c-3.049-0.797-3.414-0.977-4.562-3.954
	c-3.948-9.356-9.06-21.691-13.242-33.836c-0.188-0.925-0.685-1.77-1.524-1.77h-10.51c-0.666,0-1.216,0.055-1.463,0.717l-0.309,0.976
	c-0.854,1.512,2.015,1.096,3.408,2.429c0.666,0.675,2.188,1.716,1.092,4.614l-10.45,26.869c-1.281,3.041-1.702,3.405-4.25,3.999
	c-0.925,0.252-1.397,0.436-1.589,0.928l-0.297,0.838c-0.539,1.403,0.723,1.165,1.886,1.165h9.418c0.866,0,1.028-0.729,1.213-1.043
	l0.367-0.658c0.788-1.467-3.999-0.849-2.864-4.073l2.743-6.937h15.254l4.547,11.826c0.218,0.514,0.728,0.885,1.313,0.885h8.517
	c0.687,0,1.174-0.065,1.491-0.604l0.595-1.348C231.103,63.385,230.725,63.043,230.118,62.855"/>
<path fill="#99877E" d="M361.245,63.336c-0.361,0.607-0.604,1.212-1.21,1.58c-1.469,0.915-6.247,1.641-11.856,1.641
	c-13.863,0-23.348-9.117-23.348-22.371c0-11.898,9.975-21.625,23.102-21.625c7.302,0,12.404,2.534,14.292,3.701
	c0.469,0.235,0.469,0.603,0.469,1.037v3.888c0,0.241-0.167,0.474-0.358,0.666l-1.644,1.151c-0.911,0.677-2.905-6.507-12.702-6.507
	c-9.176,0-13.973,7.307-13.973,17.204c0,12.169,7.1,18.894,15.363,18.894c4.142,0,8.707-1.019,12.061-4.188
	c0.895-0.854,2.249-0.06,1.699,0.858L361.245,63.336z"/>
<path fill="#99877E" d="M407.347,63.828c-2.432-1.395-7.35-8.205-12.824-17.692c5.764-2.623,8.323-7.553,8.323-12.398
	c-0.052-7.241-5.656-10.464-11.306-10.464h-21.142c-0.376,0-0.797,0.182-1.051,0.727l-0.47,1.155
	c-0.307,0.67,0.238,0.862,1.145,1.106c2.607,0.413,3.827,1.442,3.827,4.021v29.035c0,2.312-1.572,3.276-3.09,3.582
	c-0.435,0.143-0.909,0.203-1.158,0.86l-0.375,1.027c-0.299,0.917,0.31,1.043,0.796,1.043h15.446c0.554,0,0.849-0.194,1.024-0.482
	l0.485-1.219c0.252-0.488,0.122-0.978-0.661-1.087c-2.977-0.688-3.894-1.111-3.894-3.725V47.47h4.555l9.55,16.903
	c0.295,0.474,0.729,1.458,1.68,1.458h9.139V63.828z M382.424,26.563h4.87c3.774,0,6.561,1.758,6.679,7.83
	c0.121,6.688-3.519,9.791-7.771,9.791h-3.778V26.563"/>
<path fill="#99877E" d="M422.094,41.028h14.043c0.793,0,1.166,0.361,0.793,0.919l-1.093,1.876c-0.408,0.664-0.981,0.842-1.946,0.842
	h-11.797v11.797c0,4.578,1.095,5.731,4.434,5.731h4.998c5.943,0,6.8-5.115,7.651-4.879l1.513,0.498
	c0.248,0.062,0.378,0.289,0.378,0.535v5.961c0,0.968-1.148,1.521-2.811,1.521h-18.78c-4.614,0-5.954,0.059-5.954-4.199V30.283
	c0-2.58-1.205-3.608-3.825-4.021c-0.922-0.244-1.461-0.436-1.147-1.107L409.023,24c0.246-0.544,0.674-0.726,1.024-0.726h26.507
	c1.163,0,1.891,0.684,1.771,1.522v4.855c0,0.18-0.123,0.375-0.291,0.549l-1.104,0.925c-0.919,0.728-1.828-4.204-5.904-4.204h-8.932
	V41.028z"/>
<path fill="#99877E" d="M449.929,61.88c0,1.815,0.604,2.852,1.635,3.221c3.227,1.091,7,1.457,14.723,1.457
	c13.373,0,23.028-10.327,23.028-22.975c0-12.278-5.529-20.31-22.841-20.31h-19.998c-0.37,0-0.791,0.183-1.034,0.728l-0.5,1.155
	c-0.302,0.67,0.237,0.862,1.164,1.106c2.61,0.413,3.823,1.442,3.823,4.021V61.88z M458.497,26.922h6.936
	c9.529,0,14.709,4.74,14.709,16.78c0,10.828-4.448,19.198-13.92,19.198c-4.625,0-7.725-1.092-7.725-5.702V26.922"/>
<path fill="#99877E" d="M518.761,22.561c-12.58,0-23.399,8.981-23.399,22.596c0,13.383,10.437,21.401,21.207,21.401
	c14.304,0,23.101-10.935,23.101-22.856C539.669,32.287,530.984,22.561,518.761,22.561 M517.474,26.497
	c6.695,0,13.009,5.357,13.009,17.99c0,7.894-3.633,18.109-12.743,18.109c-7.357,0-13.193-6.077-13.193-19.557
	C504.546,36.955,507.396,26.497,517.474,26.497"/>
<path fill="#99877E" d="M598.042,59.317c0,2.614,0.902,3.038,3.891,3.726c0.775,0.109,0.901,0.599,0.67,1.086l-0.486,1.221
	c-0.184,0.288-0.492,0.48-1.047,0.48h-15.426c-0.488,0-1.104-0.125-0.799-1.041l0.369-1.027c0.236-0.657,0.723-0.719,1.148-0.862
	c1.53-0.304,3.102-1.268,3.102-3.582l-2.17-24.377h-0.131l-14.389,29.549c-0.373,0.74-0.673,1.341-1.17,1.341h-1.744
	c-0.375,0-0.869-0.862-1.342-1.951L555.071,34.94h-0.125l-2.832,24.377c0,2.614,0.92,3.038,3.893,3.726
	c0.799,0.109,0.912,0.599,0.668,1.086l-0.495,1.221c-0.173,0.288-0.487,0.48-1.019,0.48h-11.084c-0.488,0-1.078-0.125-0.768-1.041
	l0.35-1.027c0.246-0.657,0.733-0.719,1.154-0.862c1.52-0.304,3.104-1.268,3.104-3.582l2.729-28.154
	c0.107-1.216-0.806-2.03-1.242-2.511c-1.353-1.458-2.715-2.205-3.627-2.39c-1.232-0.312-1.352-0.729-1.103-1.273l0.487-1.231
	c0.17-0.248,0.506-0.484,1.039-0.484h9.645c2.025,0,2.446,0.236,3.482,2.491l13.677,28.879l14.79-29.416
	c0.777-1.647,1.691-1.954,2.544-1.954h9.669c0.596,0,1.162,0.131,0.841,1.103l-0.358,1.157c-0.254,0.668-0.867,0.79-1.524,0.963
	c-1.834,0.425-3.085,1.159-3.085,3.787L598.042,59.317z"/>
<path fill="#99877E" d="M671.107,59.317c0,2.614,0.917,3.038,3.897,3.726c0.773,0.109,0.902,0.599,0.662,1.086l-0.486,1.221
	c-0.176,0.288-0.492,0.48-1.023,0.48h-15.458c-0.478,0-1.088-0.125-0.786-1.041l0.37-1.027c0.247-0.657,0.733-0.719,1.153-0.862
	c1.517-0.304,3.104-1.268,3.104-3.582V27.541h-14.103c-0.86,0-1.643-0.242-0.86-1.278l1.351-2.195
	c0.537-0.663,1.154-0.794,2.129-0.794h34.283c0.844,0,1.639,0.236,0.844,1.287l-1.342,2.195c-0.541,0.663-1.156,0.785-2.125,0.785
	h-11.61V59.317z"/>
<path fill="#99877E" d="M695.86,29.778c0-2.611-0.902-3.023-3.899-3.693c-0.776-0.135-0.896-0.619-0.657-1.096l0.474-1.232
	c0.184-0.301,0.487-0.484,1.04-0.484h15.445c0.488,0,1.09,0.131,0.793,1.038l-0.365,1.028c-0.237,0.679-0.733,0.746-1.16,0.862
	c-1.516,0.295-3.107,1.266-3.107,3.577v29.539c0,2.614,0.922,3.038,3.883,3.726c0.806,0.109,0.924,0.599,0.688,1.088l-0.504,1.219
	c-0.185,0.288-0.486,0.48-1.009,0.48h-15.442c-0.498,0-1.103-0.126-0.813-1.042l0.375-1.026c0.238-0.657,0.732-0.719,1.156-0.862
	c1.531-0.304,3.104-1.269,3.104-3.582V29.778z"/>
<path fill="#99877E" d="M750.458,63.336c-0.354,0.607-0.599,1.212-1.212,1.58c-1.452,0.915-6.256,1.641-11.845,1.641
	c-13.87,0-23.339-9.117-23.339-22.371c0-11.898,9.971-21.625,23.091-21.625c7.302,0,12.406,2.534,14.283,3.701
	c0.496,0.235,0.496,0.603,0.496,1.037v3.888c0,0.241-0.19,0.474-0.363,0.666l-1.641,1.151c-0.926,0.677-2.928-6.507-12.707-6.507
	c-9.174,0-13.993,7.307-13.993,17.204c0,12.169,7.12,18.894,15.384,18.894c4.139,0,8.699-1.019,12.025-4.188
	c0.932-0.854,2.25-0.06,1.713,0.858L750.458,63.336z"/>
<path fill="#99877E" d="M621.269,49.484l6.381-16.466l6.26,16.466H621.269z M650.931,62.855c-3.025-0.791-3.388-0.977-4.547-3.95
	c-3.962-9.36-9.059-21.695-13.261-33.855c-0.19-0.91-0.67-1.775-1.517-1.775h-10.535c-0.644,0-1.191,0.077-1.437,0.739l-0.291,0.976
	c-0.864,1.512,1.989,1.096,3.392,2.429c0.689,0.675,2.18,1.716,1.096,4.614l-10.465,26.873c-1.271,3.037-1.695,3.401-4.247,4.018
	c-0.898,0.229-1.39,0.413-1.575,0.905l-0.311,0.846c-0.525,1.396,0.731,1.157,1.886,1.157h9.415c0.857,0,1.044-0.722,1.219-1.043
	l0.367-0.653c0.783-1.472-4.018-0.854-2.854-4.078l2.727-6.922l15.271-0.015l4.543,11.826c0.2,0.52,0.723,0.885,1.305,0.885h8.529
	c0.67,0,1.176-0.05,1.465-0.601l0.635-1.352C651.897,63.4,651.552,63.043,650.931,62.855"/>
<path fill="#99877E" d="M160.704,26.577h3.547c5.037,0,7.897,1.352,7.897,7.118c0,4.006-2.679,7.775-7.646,7.775h-3.799V26.577z
	 M148.673,23.306c-0.365,0-0.797,0.185-1.027,0.715l-0.494,1.177c-0.303,0.66,0.243,0.845,1.156,1.086
	c2.635,0.418,3.816,1.46,3.816,4.017v31.614c0,1.831,0.615,2.868,1.662,3.237c3.225,1.086,7.221,1.444,13.002,1.444
	c8.405,0,17.036-3.637,17.036-12.875c0-4.025-2.921-10.354-11.729-11.336v-0.112c5.274-1.826,8.809-5.348,8.621-9.794
	c-0.287-6.997-6-9.174-12.336-9.174H148.673 M160.704,44.764h3.663c6.077,0,9.718,3.597,9.839,9.183
	c0.127,5.72-2.729,9.382-7.714,9.382c-3.776,0-5.788-1.352-5.788-5.436V44.764"/>
</svg>
